<svg viewBox="0 0 47 46" fill="none" xmlns="http://www.w3.org/2000/svg">
<path fill-rule="evenodd" clip-rule="evenodd" d="M0.300781 0.772217H3.45368C14.1743 0.772217 22.8203 7.52227 27.1131 15.6777C28.0823 17.5189 28.8501 19.4796 29.3728 21.4932C30.8092 21.1604 32.3288 20.8743 33.9332 20.6408C35.6564 20.3901 37.1987 21.6691 37.3657 23.4024C37.5327 25.1357 36.2607 26.6654 34.5386 26.923C32.9562 27.1596 31.4996 27.4476 30.1601 27.776C30.099 32.6633 28.3921 37.4632 24.4471 41.2748C21.161 44.4499 17.267 46.1734 13.8036 44.8081C10.0913 43.3447 9.14894 39.3429 9.93016 35.9968C11.0305 31.284 15.3442 26.4508 23.3484 23.3309C22.9593 21.7559 22.3515 20.1696 21.5332 18.6149C18.5725 12.9902 13.1509 8.4678 6.60658 7.34601V41.7979C6.60658 43.5392 5.19497 44.9508 3.45368 44.9508C1.71238 44.9508 0.300781 43.5392 0.300781 41.7979V0.772217ZM23.6221 30.0647C18.5071 32.5406 16.4936 35.6195 16.0708 37.4305C15.8965 38.1772 15.986 38.6351 16.0608 38.828C16.079 38.8748 16.0957 38.9055 16.107 38.9235C16.1128 38.9328 16.1175 38.9393 16.1207 38.9433C16.138 38.9493 16.2019 38.9676 16.3313 38.9647C16.4826 38.9612 16.7282 38.9279 17.0737 38.8047C17.7777 38.5536 18.8016 37.9612 20.0655 36.74C21.979 34.8912 23.1504 32.5905 23.6221 30.0647Z" fill="#686DF1"/>
<path fill-rule="evenodd" clip-rule="evenodd" d="M40.9467 25.9328C41.4797 26.231 42.0634 26.3801 42.6979 26.3801C43.326 26.3801 43.9034 26.231 44.43 25.9328C44.9629 25.6346 45.3817 25.2222 45.6862 24.6956C45.9971 24.169 46.1526 23.5757 46.1526 22.9159C46.1526 22.256 45.9971 21.6628 45.6862 21.1362C45.3817 20.6096 44.9661 20.2003 44.4395 19.9085C43.9129 19.6103 43.3323 19.4612 42.6979 19.4612C42.0634 19.4612 41.4797 19.6103 40.9467 19.9085C40.4201 20.2003 40.0014 20.6096 39.6905 21.1362C39.3796 21.6628 39.2241 22.256 39.2241 22.9159C39.2241 23.5757 39.3796 24.169 39.6905 24.6956C40.0014 25.2222 40.4201 25.6346 40.9467 25.9328Z" fill="#2CDF94"/>
<path fill-rule="evenodd" clip-rule="evenodd" d="M23.3637 23.3413C22.9745 21.7687 22.3673 20.1849 21.5502 18.6325C20.5113 16.6587 19.1693 14.8207 17.582 13.2176L24.1436 11.1299C25.293 12.5721 26.2942 14.1071 27.1302 15.6954C28.0917 17.5219 28.855 19.4661 29.3774 21.4628L29.3764 21.4923C28.8279 21.5902 25.1439 22.7643 23.3637 23.3413Z" fill="url(#paint0_linear_844_1854)"/>
<path fill-rule="evenodd" clip-rule="evenodd" d="M30.1733 27.7902C30.1696 27.7911 30.1659 27.792 30.1622 27.7929C30.1154 31.5362 29.1031 35.2282 26.8593 38.4641L20.8203 35.9631C22.2923 34.2663 23.2178 32.2575 23.6242 30.0816C23.6107 30.0882 23.5972 30.0947 23.5837 30.1013L23.6061 30.0778C24.5582 29.5676 25.5428 29.2551 28.7002 28.253C29.1452 28.1117 29.6334 27.9568 30.1707 27.7856L30.1733 27.7902Z" fill="url(#paint1_linear_844_1854)"/>
<defs>
<linearGradient id="paint0_linear_844_1854" x1="20.958" y1="11.1299" x2="27.726" y2="25.2658" gradientUnits="userSpaceOnUse">
<stop offset="0.203125" stop-color="#686DF1"/>
<stop offset="1" stop-color="#4A4EBC"/>
</linearGradient>
<linearGradient id="paint1_linear_844_1854" x1="27.2586" y1="27.7856" x2="22.7846" y2="38.4643" gradientUnits="userSpaceOnUse">
<stop stop-color="#4A4EBC"/>
<stop offset="0.833333" stop-color="#686DF1"/>
</linearGradient>
</defs>
</svg>
